<svg xmlns="http://www.w3.org/2000/svg" viewBox="0 0 24 24" width="24" height="24">
  <defs>
    <style>
      .bowtie-path {
        fill: currentColor;
        stroke: none;
      }
    </style>
  </defs>
  
  <!-- Left wing -->
  <path class="bowtie-path" d="M2 8 C2 6, 4 4, 7 5 C9 6, 10 8, 11 10 L12 12 L11 14 C10 16, 9 18, 7 19 C4 20, 2 18, 2 16 L2 8 Z"/>
  
  <!-- Right wing -->
  <path class="bowtie-path" d="M22 8 C22 6, 20 4, 17 5 C15 6, 14 8, 13 10 L12 12 L13 14 C14 16, 15 18, 17 19 C20 20, 22 18, 22 16 L22 8 Z"/>
  
  <!-- Center knot -->
  <ellipse class="bowtie-path" cx="12" cy="12" rx="1.5" ry="2"/>
  
  <!-- Wing details/patterns -->
  <ellipse class="bowtie-path" cx="7" cy="10" rx="1" ry="1.5" opacity="0.3"/>
  <ellipse class="bowtie-path" cx="7" cy="14" rx="1" ry="1.5" opacity="0.3"/>
  <ellipse class="bowtie-path" cx="17" cy="10" rx="1" ry="1.5" opacity="0.3"/>
  <ellipse class="bowtie-path" cx="17" cy="14" rx="1" ry="1.5" opacity="0.3"/>
</svg>
